# Blender v2.79 (sub 0) OBJ File: 'LavaMesh.blend'
# www.blender.org
o Cube
v -1.000000 0.000000 1.000000
v -1.000000 0.000000 -1.000000
v 1.000000 0.000000 -1.000000
v 1.000000 0.000000 1.000000
v -1.000000 0.000000 3.000000
v 1.000000 0.000000 3.000000
v -0.999999 0.000000 5.000000
v 1.000000 0.000000 5.000000
v -1.000000 0.000000 -3.000000
v 1.000000 0.000000 -3.000000
v -1.000000 0.000000 -5.000000
v 1.000000 0.000000 -5.000000
v -1.000000 -2.000000 -5.000000
v 1.000000 -2.000000 -5.000000
v -1.000000 -4.000000 -5.000000
v 1.000000 -4.000000 -5.000000
v -0.999999 2.000000 5.000000
v 1.000000 2.000000 5.000000
v -0.999999 4.000000 5.000000
v 1.000000 4.000000 5.000000
v -0.999999 5.000000 5.000000
v 1.000000 5.000000 5.000000
vt 0.000100 0.000100
vt 0.999900 0.000100
vt 0.999900 0.999900
vt 0.000100 0.999900
vt 0.999900 0.999900
vt 0.000100 0.999900
vt 0.000100 0.000100
vt 0.999900 0.000100
vt 0.000100 0.000100
vt 0.999900 0.000100
vt 0.999900 0.999900
vt 0.000100 0.999900
vt 0.999900 0.999900
vt 0.000100 0.999900
vt 0.000100 0.000100
vt 0.999900 0.000100
vt 0.000100 0.000100
vt 0.999900 0.000100
vt 0.999900 0.999900
vt 0.000100 0.999900
vt 0.000100 0.000100
vt 0.999900 0.000100
vt 0.999900 0.999900
vt 0.000100 0.999900
vt 0.000100 0.000100
vt 0.999900 0.000100
vt 0.999900 0.999900
vt 0.000100 0.999900
vt 0.999900 0.999900
vt 0.000100 0.999900
vt 0.000100 0.000100
vt 0.999900 0.000100
vt 0.999900 0.999900
vt 0.000100 0.999900
vt 0.000100 0.000100
vt 0.999900 0.000100
vt 1.000000 1.000000
vt 0.000142 1.000000
vt 0.000141 0.500071
vt 1.000000 0.500070
vn 0.0000 1.0000 0.0000
vn 0.0000 0.0000 -1.0000
s off
f 1/1/1 4/2/1 3/3/1 2/4/1
f 6/5/1 5/6/1 7/7/1 8/8/1
f 2/9/1 3/10/1 10/11/1 9/12/1
f 4/13/1 1/14/1 5/15/1 6/16/1
f 9/17/1 10/18/1 12/19/1 11/20/1
f 11/21/2 12/22/2 14/23/2 13/24/2
f 13/25/2 14/26/2 16/27/2 15/28/2
f 8/29/2 7/30/2 17/31/2 18/32/2
f 18/33/2 17/34/2 19/35/2 20/36/2
f 20/37/2 19/38/2 21/39/2 22/40/2
